{
  "accessors": [
    {
      "bufferView": 2,
      "componentType": 5126,
      "count": 2252,
      "max": [
        0.17495299875736237,
        1.0,
        0.28862398862838745
      ],
      "min": [
        -0.17495299875736237,
        -1.0,
        -0.28862398862838745
      ],
      "type": "VEC3"
    },
    {
      "bufferView": 2,
      "byteOffset": 27024,
      "componentType": 5126,
      "count": 2252,
      "max": [
        0.998620867729187,
        0.9998717904090881,
        0.997802734375
      ],
      "min": [
        -0.9999715089797974,
        -0.9956573843955994,
        -0.9984105229377747
      ],
      "type": "VEC3"
    },
    {
      "bufferView": 3,
      "componentType": 5126,
      "count": 2252,
      "max": [
        0.8738437294960022,
        0.9767442941665649,
        0.9998599886894226,
        1.0
      ],
      "min": [
        -0.9981189966201782,
        -0.9998498558998108,
        -0.9995020627975464,
        1.0
      ],
      "type": "VEC4"
    },
    {
      "bufferView": 1,
      "componentType": 5126,
      "count": 2252,
      "max": [
        0.9589110016822815,
        0.9980469942092896
      ],
      "min": [
        0.0019531099824234843,
        0.0019531099824234843
      ],
      "type": "VEC2"
    },
    {
      "bufferView": 0,
      "componentType": 5125,
      "count": 12972,
      "type": "SCALAR"
    }
  ],
  "asset": {
    "extras": {
      "author": "biancattaneo (https://sketchfab.com/biancattaneo)",
      "license": "CC-BY-4.0 (http://creativecommons.org/licenses/by/4.0/)",
      "source": "https://sketchfab.com/3d-models/tribal-tooth-3079dedcd1b94e2fb6cf411e9aa95497",
      "title": "Tribal Tooth"
    },
    "generator": "Sketchfab-12.67.0",
    "version": "2.0"
  },
  "bufferViews": [
    {
      "buffer": 0,
      "byteLength": 51888,
      "name": "floatBufferViews",
      "target": 34963
    },
    {
      "buffer": 0,
      "byteLength": 18016,
      "byteOffset": 51888,
      "byteStride": 8,
      "name": "floatBufferViews",
      "target": 34962
    },
    {
      "buffer": 0,
      "byteLength": 54048,
      "byteOffset": 69904,
      "byteStride": 12,
      "name": "floatBufferViews",
      "target": 34962
    },
    {
      "buffer": 0,
      "byteLength": 36032,
      "byteOffset": 123952,
      "byteStride": 16,
      "name": "floatBufferViews",
      "target": 34962
    }
  ],
  "buffers": [
    {
      "byteLength": 159984,
      "uri": "scene.bin"
    }
  ],
  "images": [
    {
      "uri": "textures/Diente_baseColor.jpeg"
    },
    {
      "uri": "textures/Diente_metallicRoughness.png"
    },
    {
      "uri": "textures/Diente_normal.png"
    }
  ],
  "materials": [
    {
      "doubleSided": true,
      "name": "Diente",
      "normalTexture": {
        "index": 2
      },
      "occlusionTexture": {
        "index": 1
      },
      "pbrMetallicRoughness": {
        "baseColorTexture": {
          "index": 0
        },
        "metallicRoughnessTexture": {
          "index": 1
        }
      }
    }
  ],
  "meshes": [
    {
      "name": "defaultMaterial",
      "primitives": [
        {
          "attributes": {
            "NORMAL": 1,
            "POSITION": 0,
            "TANGENT": 2,
            "TEXCOORD_0": 3
          },
          "indices": 4,
          "material": 0,
          "mode": 4
        }
      ]
    }
  ],
  "nodes": [
    {
      "children": [
        1
      ],
      "matrix": [
        1.0,
        0.0,
        0.0,
        0.0,
        0.0,
        2.220446049250313e-16,
        -1.0,
        0.0,
        0.0,
        1.0,
        2.220446049250313e-16,
        0.0,
        0.0,
        0.0,
        0.0,
        1.0
      ],
      "name": "Sketchfab_model"
    },
    {
      "children": [
        2
      ],
      "matrix": [
        1.0,
        0.0,
        0.0,
        0.0,
        0.0,
        -4.371139006309477e-08,
        0.999999999999999,
        0.0,
        0.0,
        -0.999999999999999,
        -4.371139006309477e-08,
        0.0,
        0.0,
        0.0,
        0.0,
        1.0
      ],
      "name": "Collada visual scene group"
    },
    {
      "children": [
        3
      ],
      "name": "Diente"
    },
    {
      "mesh": 0,
      "name": "defaultMaterial"
    }
  ],
  "samplers": [
    {
      "magFilter": 9729,
      "minFilter": 9987,
      "wrapS": 10497,
      "wrapT": 10497
    }
  ],
  "scene": 0,
  "scenes": [
    {
      "name": "Sketchfab_Scene",
      "nodes": [
        0
      ]
    }
  ],
  "textures": [
    {
      "sampler": 0,
      "source": 0
    },
    {
      "sampler": 0,
      "source": 1
    },
    {
      "sampler": 0,
      "source": 2
    }
  ]
}
